<?xml version="1.0" encoding="utf-8"?>

<svg version="1.1" xmlns="http://www.w3.org/2000/svg" xmlns:xlink="http://www.w3.org/1999/xlink" x="0px" y="0px"
	 style="enable-background:new 0 0 841.9 595.3;" xml:space="preserve" viewBox="0 100 850 350" >
<style type="text/css">
	.st1{fill:#668B22;}
	.st2{fill:none;stroke:#668B22;stroke-width:1.146;stroke-miterlimit:10;}
	.st3{fill:none;stroke:#668B22;stroke-width:1.014;stroke-miterlimit:10;}
	.st4{fill:none;stroke:#668B22;stroke-width:1.0444;stroke-miterlimit:10;}
	.st5{fill:none;stroke:#668B22;stroke-width:2.4103;stroke-miterlimit:10;}
	.st6{fill:none;stroke:#668B22;stroke-width:2.2194;stroke-miterlimit:10;}
	.st7{fill:none;stroke:#668B22;stroke-width:1.1044;stroke-miterlimit:10;}
	.st8{fill:#FFFFFF;stroke:#668B22;stroke-width:2.0937;stroke-miterlimit:10;}
	.st9{fill:none;stroke:#668B22;stroke-width:1.8614;stroke-miterlimit:10;}
	.st10{fill:none;stroke:#668B22;stroke-width:1.4911;stroke-miterlimit:10;}
	.st11{fill:none;stroke:#668B22;stroke-width:1.3194;stroke-miterlimit:10;}
	.st12{fill:none;stroke:#668B22;stroke-width:1.282;stroke-miterlimit:10;}
	.st13{fill:none;stroke:#668B22;stroke-width:1.1715;stroke-miterlimit:10;}
	.st14{fill:none;stroke:#668B22;stroke-width:2.6965;stroke-miterlimit:10;}
	.st15{fill:#FFFFFF;stroke:#668B22;stroke-width:2.3423;stroke-miterlimit:10;}
	.st16{fill:none;stroke:#668B22;stroke-width:2.0824;stroke-miterlimit:10;}
	.st17{fill:none;stroke:#668B22;stroke-width:1.9839;stroke-miterlimit:10;}
	.st18{fill:none;stroke:#668B22;stroke-width:1.8275;stroke-miterlimit:10;}
	.st19{fill:#898949;stroke:#000000;stroke-width:0.8768;stroke-miterlimit:10;}
	.st20{fill:#668B22;stroke:#000000;stroke-width:0.8768;stroke-miterlimit:10;}
	.st21{font-family:'Rockwell';}
	.st22{font-size:37.7005px;}

</style>

<g id="elem">
	<g id="bouteille4">
		
			<rect x="61.5" y="40.4" transform="matrix(0.996 8.970769e-02 -8.970769e-02 0.996 4.2211 -5.7688)" class="st1" width="9.5" height="7.3"/>
		
			<rect x="59.9" y="45.6" transform="matrix(0.996 8.970769e-02 -8.970769e-02 0.996 4.4867 -5.7402)" class="st1" width="12.4" height="2.9"/>
		<path class="st2" d="M61.1,47c0,0-4.5,2.2-5.6,5.6c0,0-10.7,3.4-13.4,8.8s1.9,8.8,1.9,8.8l-6.9,49.6c0,0-0.8,4.1,3.8,4.5
			c4.6,0.5,29.4,4.5,29.4,4.5s5.3,0.5,6.1-6.5c0.8-7.1,5-46.1,5-46.1s9.5-5.8,0-16.3s-9.5-10.5-9.5-10.5L61.1,47z"/>
		
			<rect x="48.4" y="65.5" transform="matrix(0.9897 0.1435 -0.1435 0.9897 10.2436 -8.373)" class="st1" width="29.5" height="2.6"/>
		
			<rect x="47.7" y="69.3" transform="matrix(0.9897 0.1435 -0.1435 0.9897 10.7745 -8.2335)" class="st1" width="29.5" height="2.6"/>
		<path class="st3" d="M67.1,102.5L67.1,102.5c-4-0.4-6.9-3.9-6.5-7.8l1-11c0.4-4,3.9-6.9,7.8-6.5h0c4,0.4,6.9,3.9,6.5,7.8l-1,11
			C74.6,100,71.1,102.9,67.1,102.5z"/>
		<path class="st1" d="M49.6,119.6l-1.6-0.1c-3.2-0.3-5.5-3.1-5.2-6.2l2.9-31.9c0.3-3.2,3.1-5.5,6.2-5.2l1.6,0.1
			c3.2,0.3,5.5,3.1,5.2,6.2l-2.9,31.9C55.5,117.6,52.7,119.9,49.6,119.6z"/>
		<path class="st1" d="M43.9,113.7l0.5-5.5c0.3-3.2,3.1-5.5,6.2-5.2l12.6,1.1c3.2,0.3,5.5,3.1,5.2,6.2l-0.5,5.5
			c-0.3,3.2-3.1,5.5-6.2,5.2L49.1,120C46,119.7,43.6,116.9,43.9,113.7z"/>
	</g>
	<g id="bouteille3">
		
			<rect x="35.1" y="148.5" transform="matrix(-0.7071 0.7071 -0.7071 -0.7071 179.367 231.051)" class="st2" width="13.5" height="8.4"/>
		<path class="st2" d="M41.6,158.9l6.4-6.4c3.4-3.4,9-3.4,12.4,0l23.1,23.1c3.4,3.4,3.4,9,0,12.4l-6.4,6.4c-3.4,3.4-9,3.4-12.4,0
			l-23.1-23.1C38.2,167.9,38.2,162.3,41.6,158.9z"/>
		
			<rect x="44.6" y="163.3" transform="matrix(-0.7331 0.6801 -0.6801 -0.7331 206.0642 248.2329)" class="st1" width="19.5" height="2.6"/>
		
			<rect x="48" y="167.3" transform="matrix(-0.7331 0.6801 -0.6801 -0.7331 214.8255 252.9462)" class="st1" width="19.5" height="2.6"/>
	</g>
	<g id="bouteille2">
		
			<rect x="184.7" y="118.8" transform="matrix(0.9522 0.3055 -0.3055 0.9522 46.3173 -52.4388)" class="st1" width="12" height="5.9"/>
		
			<rect x="185" y="123.1" transform="matrix(0.9522 0.3055 -0.3055 0.9522 47.3244 -51.9301)" class="st1" width="9.2" height="4.4"/>
		
			<rect x="170.1" y="140.6" transform="matrix(0.9372 0.3488 -0.3488 0.9372 63.2528 -53.9688)" class="st1" width="22.8" height="16.1"/>
		<path class="st2" d="M184.6,125.9c0,0-6.9,0.6-10.9,11.3S161.2,171,161.2,171s-0.6,10.4,5.7,7.8c6.3-2.6,7.2,4.3,7.2,4.3
			s5.7,4,8.6-3.7c2.9-7.7,12.3-34.3,12.3-34.3s3.2-5.6-1.7-16.4L184.6,125.9z"/>
	</g>
	<g id="bouteille1">
		<path class="st4" d="M146.2,341.5l-13.8,2.4c-5,0.9-9.7-2.4-10.5-7.4l-6-34.4c-0.9-5,2.4-9.7,7.4-10.5l9.5-1.7l-5.2-29.7l13.8-2.4
			l6.7,38.6l-0.5,0.1c0,0,0,0,0,0.1l6,34.4C154.4,335.9,151.1,340.6,146.2,341.5z"/>
		
			<rect x="118.4" y="306.9" transform="matrix(0.9861 -0.166 0.166 0.9861 -50.5582 26.7215)" class="st1" width="32.2" height="17.7"/>
		<path class="st1" d="M134.8,256.1l-2.3,0.4c-4.2,0.7-8.2-2.1-9-6.4v0c-0.7-4.2,2.1-8.2,6.4-9l2.3-0.4c4.2-0.7,8.2,2.1,9,6.4v0
			C141.9,251.4,139,255.4,134.8,256.1z"/>
		
			<rect x="128.4" y="253.7" transform="matrix(-0.9861 0.166 -0.166 -0.9861 307.7471 487.8484)" class="st1" width="10.1" height="6.2"/>
	</g>
	<g id="barquette">
		<polygon class="st1" points="29.6,319.1 42.8,331.5 81.7,320.4 82.3,296.4 		"/>
		
			<rect x="26.7" y="302.3" transform="matrix(0.9212 -0.3892 0.3892 0.9212 -114.2688 45.9176)" class="st5" width="59" height="5.5"/>
	</g>
	<g id="pot">
		<path class="st1" d="M766.5,84.2v30.1c0,0,6.7,9.3,17,5.9l11.1-29.3l-14.1,0.7L766.5,84.2z"/>
		<polygon class="st6" points="762.9,82.3 780.6,78.6 798.4,89 780.6,92.7 		"/>
		<polygon class="st6" points="772.6,84.2 780.6,82.1 788.2,85.6 780.6,88.8 		"/>
	</g>
	<g id="glace">
		<path class="st1" d="M164.1,136.1l-35.8,3.4c-2.1,0.2-3.9-1.3-4.1-3.4l-2.3-24.4c-0.2-2.1,1.3-3.9,3.4-4.1l35.8-3.4
			c2.1-0.2,3.9,1.3,4.1,3.4l2.3,24.4C167.7,134,166.2,135.9,164.1,136.1z"/>
		<path class="st8" d="M152,134l-11.4,1.1c-6.6,0.6-12.5-4.2-13.1-10.9l-0.1-1.3c-0.6-6.6,4.2-12.5,10.9-13.1l11.4-1.1
			c6.6-0.6,12.5,4.2,13.1,10.9l0.1,1.3C163.5,127.5,158.6,133.4,152,134z"/>
		
			<rect x="132.1" y="115.6" transform="matrix(0.9956 -9.420265e-02 9.420265e-02 0.9956 -10.442 14.1498)" class="st1" width="25.1" height="4.2"/>
		
			<rect x="132.1" y="123.5" transform="matrix(0.9956 -9.420265e-02 9.420265e-02 0.9956 -11.1869 14.185)" class="st1" width="25.1" height="4.2"/>
	</g>
	<g id="conserve">
		<path class="st1" d="M102.7,206c0,0-5.1-5.6-8.4,0c-3.3,5.6-6,6.2,0,10.5c6,4.4,6,4.4,6,4.4l5.6,1.8
			C105.9,222.7,101.3,213.5,102.7,206z"/>
		<path class="st1" d="M80.6,220v26.5c0,0,16.9,12.6,28.1,0V220C108.7,220,96.3,229.3,80.6,220z"/>
		<path class="st9" d="M80.6,220c0,0,20.2-7,28.1,0C108.7,220,92.1,228.8,80.6,220z"/>
	</g>
	<g id="bouteille4_1_">
		
			<rect x="50.9" y="480.5" transform="matrix(0.996 8.970769e-02 -8.970769e-02 0.996 43.7605 -3.1685)" class="st1" width="12.4" height="9.4"/>
		
			<rect x="48.8" y="487.2" transform="matrix(0.996 8.970769e-02 -8.970769e-02 0.996 44.1061 -3.1313)" class="st1" width="16.1" height="3.8"/>
		<path class="st10" d="M50.3,489c0,0-5.8,2.9-7.3,7.3c0,0-13.9,4.5-17.4,11.4c-3.5,7,2.5,11.4,2.5,11.4l-8.9,64.5c0,0-1,5.3,5,5.9
			c6,0.6,38.3,5.9,38.3,5.9s7,0.7,8-8.5c1-9.2,6.5-60,6.5-60s12.4-7.6,0-21.3c-12.4-13.7-12.4-13.7-12.4-13.7L50.3,489z"/>
		
			<rect x="33.9" y="513.2" transform="matrix(0.9897 0.1435 -0.1435 0.9897 74.4308 -2.287)" class="st1" width="38.4" height="3.3"/>
		
			<rect x="32.9" y="518.1" transform="matrix(0.9897 0.1435 -0.1435 0.9897 75.1216 -2.1055)" class="st1" width="38.4" height="3.3"/>
		<path class="st11" d="M58.2,561.3L58.2,561.3c-5.2-0.5-9-5-8.5-10.2l1.3-14.3c0.5-5.2,5-9,10.2-8.5h0c5.2,0.5,9,5,8.5,10.2
			l-1.3,14.3C67.9,557.9,63.4,561.8,58.2,561.3z"/>
		<path class="st1" d="M37.1,583.7l-5.5-0.5c-3.2-0.3-5.5-3.1-5.2-6.2l4.1-45c0.3-3.2,3.1-5.5,6.2-5.2l5.5,0.5
			c3.2,0.3,5.5,3.1,5.2,6.2l-4.1,45C43.1,581.6,40.3,584,37.1,583.7z"/>
		<path class="st1" d="M27.9,577.6l1-10.5c0.3-3.2,3.1-5.5,6.2-5.2l19.9,1.8c3.2,0.3,5.5,3.1,5.2,6.2l-1,10.5
			c-0.3,3.2-3.1,5.5-6.2,5.2l-19.9-1.8C29.9,583.6,27.6,580.8,27.9,577.6z"/>
	</g>
	<g id="bouteille3_1_">
		
			<rect x="691.1" y="200.6" transform="matrix(-0.7071 0.7071 -0.7071 -0.7071 1337.8547 -143.4452)" class="st12" width="15.1" height="9.4"/>
		<path class="st12" d="M697.6,213l8.7-8.7c3.4-3.4,9-3.4,12.4,0l27.3,27.3c3.4,3.4,3.4,9,0,12.4l-8.7,8.7c-3.4,3.4-9,3.4-12.4,0
			l-27.3-27.3C694.2,222,694.2,216.5,697.6,213z"/>
		
			<rect x="701.7" y="217.2" transform="matrix(-0.7331 0.6801 -0.6801 -0.7331 1383.738 -105.7278)" class="st1" width="21.8" height="2.9"/>
		
			<rect x="705.6" y="221.8" transform="matrix(-0.7331 0.6801 -0.6801 -0.7331 1393.5394 -100.4549)" class="st1" width="21.8" height="2.9"/>
	</g>
	<g id="bouteille2_1_">
		
			<rect x="717.6" y="89.8" transform="matrix(0.9522 0.3055 -0.3055 0.9522 63.0736 -216.7906)" class="st1" width="13.5" height="6.6"/>
		
			<rect x="717.9" y="94.6" transform="matrix(0.9522 0.3055 -0.3055 0.9522 64.2002 -216.2215)" class="st1" width="10.3" height="4.9"/>
		
			<rect x="701.3" y="114.3" transform="matrix(0.9372 0.3488 -0.3488 0.9372 87.813 -241.2675)" class="st1" width="25.5" height="18"/>
		<path class="st12" d="M717.4,97.8c0,0-7.8,0.7-12.2,12.6s-13.9,37.9-13.9,37.9s-0.6,11.6,6.4,8.8c7.1-2.9,8,4.8,8,4.8
			s6.4,4.5,9.6-4.2s13.7-38.4,13.7-38.4s3.6-6.2-1.9-18.3L717.4,97.8z"/>
	</g>
	<g id="bouteille1_1_">
		<path class="st13" d="M811.6,584.1l-15.5,2.7c-5.6,1-10.8-2.7-11.8-8.3l-6.8-38.6c-1-5.6,2.7-10.8,8.3-11.8l10.7-1.9l-5.8-33.3
			l15.5-2.7l7.6,43.3l-0.6,0.1c0,0,0,0,0,0.1l6.8,38.6C820.8,577.8,817.1,583.1,811.6,584.1z"/>
		
			<rect x="780.5" y="545.3" transform="matrix(0.9861 -0.166 0.166 0.9861 -81.1044 140.2806)" class="st1" width="36.1" height="19.9"/>
		<path class="st1" d="M798.8,488.3l-2.6,0.4c-4.7,0.8-9.2-2.4-10-7.1l0,0c-0.8-4.7,2.4-9.2,7.1-10l2.6-0.4c4.7-0.8,9.2,2.4,10,7.1
			l0,0C806.8,483,803.6,487.5,798.8,488.3z"/>
		
			<rect x="791.6" y="485.6" transform="matrix(-0.9861 0.166 -0.166 -0.9861 1664.8121 839.0403)" class="st1" width="11.4" height="6.9"/>
	</g>
	<g id="barquette_1_">
		<polygon class="st1" points="679.2,303.7 693.9,317.5 737.5,305.1 738.2,278.3 		"/>
		
			<rect x="676" y="284.8" transform="matrix(0.9212 -0.3892 0.3892 0.9212 -56.1382 298.6201)" class="st14" width="66" height="6.1"/>
	</g>
	<g id="pot_1_">
		<path class="st1" d="M782.7,305.2v30.1c0,0,6.7,9.3,17,5.9l11.1-29.3l-14.1,0.7L782.7,305.2z"/>
		<polygon class="st6" points="779.1,303.4 796.7,299.7 814.5,310 796.7,313.7 		"/>
		<polygon class="st6" points="788.8,305.2 796.7,303.2 804.3,306.7 796.8,309.8 		"/>
	</g>
	<g id="club_1_">
		<path class="st7" d="M788.2,219.8h-12.1c0,0-4.7,2.2-3.5,4.4l-13.2,45.1c0,0,8,5.2,16.7,1.3c8.7-3.9,19.8-14.9,19.8-14.9
			s2.2,4.2,2.8-9.8L788.2,219.8z"/>
		<path class="st7" d="M776.1,225.3c0,0,7.6-2.2,8.7,0c1.1,2.2-12.2,44-12.2,44s-8.5,2.6-9.9-2C761.4,262.6,776.1,225.3,776.1,225.3
			z"/>
		<polygon class="st1" points="788.2,219.8 776.1,270.6 798.7,255.1 798.7,245.9 		"/>
	</g>
	<g id="glace_1_">
		<path class="st1" d="M805.7,41.8l-41,3.9c-2.1,0.2-3.9-1.3-4.1-3.4L758,14.1c-0.2-2.1,1.3-3.9,3.4-4.1l41-3.9
			c2.1-0.2,3.9,1.3,4.1,3.4l2.7,28.2C809.3,39.7,807.8,41.6,805.7,41.8z"/>
		<path class="st15" d="M793.2,39.4l-15.6,1.5c-6.6,0.6-12.5-4.2-13.1-10.9l-0.4-4.3c-0.6-6.6,4.2-12.5,10.9-13.1l15.6-1.5
			c6.6-0.6,12.5,4.2,13.1,10.9l0.4,4.3C804.6,32.9,799.8,38.8,793.2,39.4z"/>
		
			<rect x="769.5" y="18.9" transform="matrix(0.9956 -9.420265e-02 9.420265e-02 0.9956 1.4822 73.9065)" class="st1" width="28.1" height="4.7"/>
		
			<rect x="769.5" y="27.7" transform="matrix(0.9956 -9.420265e-02 9.420265e-02 0.9956 0.6489 73.9458)" class="st1" width="28.1" height="4.7"/>
	</g>
	<g id="conserve_1_">
		<path class="st1" d="M818.3,132.1c0,0-5.7-6.2-9.4,0c-3.6,6.2-6.8,6.9,0,11.8c6.8,4.9,6.8,4.9,6.8,4.9l6.2,2
			C822,150.8,816.7,140.4,818.3,132.1z"/>
		<path class="st1" d="M793.7,147.7v29.7c0,0,18.9,14.1,31.4,0v-29.7C825.1,147.7,811.2,158.1,793.7,147.7z"/>
		<path class="st16" d="M793.7,147.7c0,0,22.5-7.8,31.4,0C825.1,147.7,806.5,157.6,793.7,147.7z"/>
	</g>
	<g id="bouteille4_2_">
		
			<rect x="214.5" y="19.3" transform="matrix(0.996 8.970769e-02 -8.970769e-02 0.996 2.9441 -19.5809)" class="st1" width="9.5" height="7.3"/>
		
			<rect x="212.9" y="24.5" transform="matrix(0.996 8.970769e-02 -8.970769e-02 0.996 3.2097 -19.5524)" class="st1" width="12.4" height="2.9"/>
		<path class="st2" d="M214.1,25.9c0,0-4.5,2.2-5.6,5.6c0,0-10.7,3.4-13.4,8.8c-2.7,5.3,1.9,8.8,1.9,8.8l-6.9,49.6
			c0,0-0.8,4.1,3.8,4.5c4.6,0.5,29.4,4.5,29.4,4.5s5.3,0.5,6.1-6.5c0.8-7.1,5-46.1,5-46.1s9.5-5.8,0-16.3
			c-9.5-10.5-9.5-10.5-9.5-10.5L214.1,25.9z"/>
		
			<rect x="201.4" y="44.4" transform="matrix(0.9897 0.1435 -0.1435 0.9897 8.7976 -30.55)" class="st1" width="29.5" height="2.6"/>
		
			<rect x="200.7" y="48.2" transform="matrix(0.9897 0.1435 -0.1435 0.9897 9.3286 -30.4105)" class="st1" width="29.5" height="2.6"/>
		<path class="st3" d="M220.1,81.4L220.1,81.4c-4-0.4-6.9-3.9-6.5-7.8l1-11c0.4-4,3.9-6.9,7.8-6.5h0c4,0.4,6.9,3.9,6.5,7.8l-1,11
			C227.6,78.8,224.1,81.8,220.1,81.4z"/>
		<path class="st1" d="M202.6,98.5l-1.6-0.1c-3.2-0.3-5.5-3.1-5.2-6.2l2.9-31.9c0.3-3.2,3.1-5.5,6.2-5.2l1.6,0.1
			c3.2,0.3,5.5,3.1,5.2,6.2l-2.9,31.9C208.6,96.4,205.8,98.8,202.6,98.5z"/>
		<path class="st1" d="M196.9,92.6l0.5-5.5c0.3-3.2,3.1-5.5,6.2-5.2l12.6,1.1c3.2,0.3,5.5,3.1,5.2,6.2l-0.5,5.5
			c-0.3,3.2-3.1,5.5-6.2,5.2l-12.6-1.1C199,98.6,196.7,95.8,196.9,92.6z"/>
	</g>
	<g id="bouteille2_2_">
		
			<rect x="42.9" y="228.8" transform="matrix(0.9522 0.3055 -0.3055 0.9522 73.1477 -3.8644)" class="st1" width="12" height="5.9"/>
		
			<rect x="43.2" y="233.1" transform="matrix(0.9522 0.3055 -0.3055 0.9522 74.1547 -3.3557)" class="st1" width="9.2" height="4.4"/>
		
			<rect x="28.3" y="250.7" transform="matrix(0.9372 0.3488 -0.3488 0.9372 92.7207 2.394)" class="st1" width="22.8" height="16.1"/>
		<path class="st2" d="M42.8,236c0,0-6.9,0.6-10.9,11.3c-4,10.7-12.4,33.9-12.4,33.9s-0.6,10.4,5.7,7.8s7.2,4.3,7.2,4.3
			s5.7,4,8.6-3.7c2.9-7.7,12.3-34.3,12.3-34.3s3.2-5.6-1.7-16.4L42.8,236z"/>
	</g>
	<g id="glace_2_">
		<path class="st1" d="M210.9,302.1l-35.8,3.4c-2.1,0.2-3.9-1.3-4.1-3.4l-2.3-24.4c-0.2-2.1,1.3-3.9,3.4-4.1l35.8-3.4
			c2.1-0.2,3.9,1.3,4.1,3.4l2.3,24.4C214.5,300.1,213,301.9,210.9,302.1z"/>
		<path class="st8" d="M198.8,300.1l-11.4,1.1c-6.6,0.6-12.5-4.2-13.1-10.9l-0.1-1.3c-0.6-6.6,4.2-12.5,10.9-13.1l11.4-1.1
			c6.6-0.6,12.5,4.2,13.1,10.9l0.1,1.3C210.3,293.6,205.4,299.5,198.8,300.1z"/>
		
			<rect x="178.9" y="281.6" transform="matrix(0.9956 -9.420265e-02 9.420265e-02 0.9956 -25.8788 19.2999)" class="st1" width="25.1" height="4.2"/>
		
			<rect x="178.9" y="289.5" transform="matrix(0.9956 -9.420265e-02 9.420265e-02 0.9956 -26.6237 19.335)" class="st1" width="25.1" height="4.2"/>
	</g>
	<g id="barquette_2_">
		<polygon class="st1" points="94.7,58.5 107.9,70.9 146.9,59.8 147.4,35.8 		"/>
		<rect x="91.8" y="41.7" transform="matrix(0.9212 -0.3892 0.3892 0.9212 -7.7164 50.7167)" class="st5" width="59" height="5.5"/>
	</g>
	<g id="pot_2_">
		<path class="st1" d="M122.1,159.5v26.9c0,0,6,8.3,15.2,5.2l9.9-26.2l-12.6,0.7L122.1,159.5z"/>
		<polygon class="st17" points="118.8,157.9 134.6,154.6 150.5,163.8 134.6,167.1 		"/>
		<polygon class="st17" points="127.5,159.5 134.6,157.7 141.4,160.9 134.7,163.7 		"/>
	</g>
	<g id="bouteille4_4_">
		
			<rect x="248" y="147.6" transform="matrix(0.996 8.970769e-02 -8.970769e-02 0.996 14.5865 -22.0703)" class="st1" width="9.5" height="7.3"/>
		
			<rect x="246.4" y="152.7" transform="matrix(0.996 8.970769e-02 -8.970769e-02 0.996 14.8521 -22.0417)" class="st1" width="12.4" height="2.9"/>
		<path class="st2" d="M247.6,154.1c0,0-4.5,2.2-5.6,5.6c0,0-10.7,3.4-13.4,8.8c-2.7,5.3,1.9,8.8,1.9,8.8l-6.9,49.6
			c0,0-0.8,4.1,3.8,4.5s29.4,4.5,29.4,4.5s5.3,0.5,6.1-6.5c0.8-7.1,5-46.1,5-46.1s9.5-5.8,0-16.3c-9.5-10.5-9.5-10.5-9.5-10.5
			L247.6,154.1z"/>
		
			<rect x="234.9" y="172.7" transform="matrix(0.9897 0.1435 -0.1435 0.9897 27.5522 -34.0317)" class="st1" width="29.5" height="2.6"/>
		
			<rect x="234.2" y="176.5" transform="matrix(0.9897 0.1435 -0.1435 0.9897 28.0831 -33.8923)" class="st1" width="29.5" height="2.6"/>
		<path class="st3" d="M253.7,209.7L253.7,209.7c-4-0.4-6.9-3.9-6.5-7.8l1-11c0.4-4,3.9-6.9,7.8-6.5h0c4,0.4,6.9,3.9,6.5,7.8l-1,11
			C261.1,207.1,257.6,210,253.7,209.7z"/>
		<path class="st1" d="M236.1,226.8l-1.6-0.1c-3.2-0.3-5.5-3.1-5.2-6.2l2.9-31.9c0.3-3.2,3.1-5.5,6.2-5.2l1.6,0.1
			c3.2,0.3,5.5,3.1,5.2,6.2l-2.9,31.9C242.1,224.7,239.3,227.1,236.1,226.8z"/>
		<path class="st1" d="M230.5,220.9l0.5-5.5c0.3-3.2,3.1-5.5,6.2-5.2l12.6,1.1c3.2,0.3,5.5,3.1,5.2,6.2l-0.5,5.5
			c-0.3,3.2-3.1,5.5-6.2,5.2l-12.6-1.1C232.5,226.9,230.2,224.1,230.5,220.9z"/>
	</g>
	<g id="bouteille3_2_">
		
			<rect x="221.6" y="255.6" transform="matrix(-0.7071 0.7071 -0.7071 -0.7071 573.5764 282.0898)" class="st2" width="13.5" height="8.4"/>
		<path class="st2" d="M228.1,266l6.4-6.4c3.4-3.4,9-3.4,12.4,0l23.1,23.1c3.4,3.4,3.4,9,0,12.4l-6.4,6.4c-3.4,3.4-9,3.4-12.4,0
			l-23.1-23.1C224.7,275,224.7,269.5,228.1,266z"/>
		
			<rect x="231.1" y="270.4" transform="matrix(-0.7331 0.6801 -0.6801 -0.7331 602.2311 307.094)" class="st1" width="19.5" height="2.6"/>
		
			<rect x="234.6" y="274.5" transform="matrix(-0.7331 0.6801 -0.6801 -0.7331 610.9923 311.8073)" class="st1" width="19.5" height="2.6"/>
	</g>
	<g id="bouteille2_4_">
		
			<rect x="68.6" y="388.3" transform="matrix(0.9522 0.3055 -0.3055 0.9522 123.0818 -4.0902)" class="st1" width="12" height="5.9"/>
		
			<rect x="68.9" y="392.6" transform="matrix(0.9522 0.3055 -0.3055 0.9522 124.0888 -3.5815)" class="st1" width="9.2" height="4.4"/>
		
			<rect x="54" y="410.1" transform="matrix(0.9372 0.3488 -0.3488 0.9372 149.943 3.4463)" class="st1" width="22.8" height="16.1"/>
		<path class="st2" d="M68.5,395.4c0,0-6.9,0.6-10.9,11.3c-4,10.7-12.4,33.9-12.4,33.9s-0.6,10.4,5.7,7.8s7.2,4.3,7.2,4.3
			s5.7,4,8.6-3.7c2.9-7.7,12.3-34.3,12.3-34.3s3.2-5.6-1.7-16.4L68.5,395.4z"/>
	</g>
	<g id="bouteille1_2_">
		<path class="st4" d="M131.9,487.8l-13.8,2.4c-5,0.9-9.7-2.4-10.5-7.4l-6-34.4c-0.9-5,2.4-9.7,7.4-10.5l9.5-1.7l-5.2-29.7l13.8-2.4
			l6.7,38.6l-0.5,0.1c0,0,0,0,0,0.1l6,34.4C140.2,482.2,136.9,486.9,131.9,487.8z"/>
		
			<rect x="104.2" y="453.2" transform="matrix(0.9861 -0.166 0.166 0.9861 -75.0422 26.387)" class="st1" width="32.2" height="17.7"/>
		<path class="st1" d="M120.6,402.4l-2.3,0.4c-4.2,0.7-8.2-2.1-9-6.4h0c-0.7-4.2,2.1-8.2,6.4-9l2.3-0.4c4.2-0.7,8.2,2.1,9,6.4l0,0
			C127.6,397.7,124.8,401.7,120.6,402.4z"/>
		
			<rect x="114.2" y="400" transform="matrix(-0.9861 0.166 -0.166 -0.9861 303.7448 780.7523)" class="st1" width="10.1" height="6.2"/>
	</g>
	<g id="barquette_4_">
		<polygon class="st1" points="216.1,426.3 229.3,438.6 268.3,427.5 268.8,403.6 		"/>
		
			<rect x="213.2" y="409.4" transform="matrix(0.9212 -0.3892 0.3892 0.9212 -141.2687 126.9645)" class="st5" width="59" height="5.5"/>
	</g>
	<g id="glace_4_">
		<path class="st1" d="M576.2,224.4l-35.8,3.4c-2.1,0.2-3.9-1.3-4.1-3.4l-2.3-24.4c-0.2-2.1,1.3-3.9,3.4-4.1l35.8-3.4
			c2.1-0.2,3.9,1.3,4.1,3.4l2.3,24.4C579.8,222.4,578.2,224.2,576.2,224.4z"/>
		<path class="st8" d="M564.1,222.4l-11.4,1.1c-6.6,0.6-12.5-4.2-13.1-10.9l-0.1-1.3c-0.6-6.6,4.2-12.5,10.9-13.1l11.4-1.1
			c6.6-0.6,12.5,4.2,13.1,10.9l0.1,1.3C575.6,215.9,570.7,221.7,564.1,222.4z"/>
		
			<rect x="544.2" y="203.9" transform="matrix(0.9956 -9.420265e-02 9.420265e-02 0.9956 -16.9319 53.3633)" class="st1" width="25.1" height="4.2"/>
		
			<rect x="544.2" y="211.8" transform="matrix(0.9956 -9.420265e-02 9.420265e-02 0.9956 -17.6768 53.3985)" class="st1" width="25.1" height="4.2"/>
	</g>
	<g id="conserve_2_">
		<path class="st1" d="M289.2,313.2c0,0-5.1-5.6-8.4,0c-3.3,5.6-6,6.2,0,10.5s6,4.4,6,4.4l5.6,1.8
			C292.5,329.9,287.8,320.6,289.2,313.2z"/>
		<path class="st1" d="M267.2,327.1v26.5c0,0,16.9,12.6,28.1,0v-26.5C295.2,327.1,282.9,336.4,267.2,327.1z"/>
		<path class="st9" d="M267.2,327.1c0,0,20.2-7,28.1,0C295.2,327.1,278.7,336,267.2,327.1z"/>
	</g>
	<g id="bouteille4_3_">
		
			<rect x="453.3" y="96" transform="matrix(0.996 8.970769e-02 -8.970769e-02 0.996 10.7874 -40.6874)" class="st1" width="9.5" height="7.3"/>
		
			<rect x="451.6" y="101.2" transform="matrix(0.996 8.970769e-02 -8.970769e-02 0.996 11.053 -40.6588)" class="st1" width="12.4" height="2.9"/>
		<path class="st2" d="M452.8,102.6c0,0-4.5,2.2-5.6,5.6c0,0-10.7,3.4-13.4,8.8c-2.7,5.3,1.9,8.8,1.9,8.8l-6.9,49.6
			c0,0-0.8,4.1,3.8,4.5c4.6,0.5,29.4,4.5,29.4,4.5s5.3,0.5,6.1-6.5c0.8-7.1,5-46.1,5-46.1s9.5-5.8,0-16.3s-9.5-10.5-9.5-10.5
			L452.8,102.6z"/>
		
			<rect x="440.1" y="121.1" transform="matrix(0.9897 0.1435 -0.1435 0.9897 22.2753 -64.0138)" class="st1" width="29.5" height="2.6"/>
		
			<rect x="439.4" y="124.9" transform="matrix(0.9897 0.1435 -0.1435 0.9897 22.8062 -63.8744)" class="st1" width="29.5" height="2.6"/>
		<path class="st3" d="M458.9,158.1L458.9,158.1c-4-0.4-6.9-3.9-6.5-7.8l1-11c0.4-4,3.9-6.9,7.8-6.5l0,0c4,0.4,6.9,3.9,6.5,7.8
			l-1,11C466.3,155.5,462.8,158.5,458.9,158.1z"/>
		<path class="st1" d="M441.3,175.2l-1.6-0.1c-3.2-0.3-5.5-3.1-5.2-6.2l2.9-31.9c0.3-3.2,3.1-5.5,6.2-5.2l1.6,0.1
			c3.2,0.3,5.5,3.1,5.2,6.2l-2.9,31.9C447.3,173.2,444.5,175.5,441.3,175.2z"/>
		<path class="st1" d="M435.7,169.3l0.5-5.5c0.3-3.2,3.1-5.5,6.2-5.2l12.6,1.1c3.2,0.3,5.5,3.1,5.2,6.2l-0.5,5.5
			c-0.3,3.2-3.1,5.5-6.2,5.2l-12.6-1.1C437.7,175.3,435.4,172.5,435.7,169.3z"/>
	</g>
	<g id="bouteille2_3_">
		
			<rect x="229.4" y="336" transform="matrix(0.9522 0.3055 -0.3055 0.9522 114.7974 -55.7216)" class="st1" width="12" height="5.9"/>
		
			<rect x="229.8" y="340.3" transform="matrix(0.9522 0.3055 -0.3055 0.9522 115.8045 -55.2129)" class="st1" width="9.2" height="4.4"/>
		
			<rect x="214.9" y="357.8" transform="matrix(0.9372 0.3488 -0.3488 0.9372 141.8061 -55.9324)" class="st1" width="22.8" height="16.1"/>
		<path class="st2" d="M229.3,343.1c0,0-6.9,0.6-10.9,11.3c-4,10.7-12.4,33.9-12.4,33.9s-0.6,10.4,5.7,7.8s7.2,4.3,7.2,4.3
			s5.7,4,8.6-3.7c2.9-7.7,12.3-34.3,12.3-34.3s3.2-5.6-1.7-16.4L229.3,343.1z"/>
	</g>
	<g id="glace_3_">
		<path class="st1" d="M215.4,494.2l-35.8,3.4c-2.1,0.2-3.9-1.3-4.1-3.4l-2.3-24.4c-0.2-2.1,1.3-3.9,3.4-4.1l35.8-3.4
			c2.1-0.2,3.9,1.3,4.1,3.4l2.3,24.4C219.1,492.2,217.5,494,215.4,494.2z"/>
		<path class="st8" d="M203.3,492.2l-11.4,1.1c-6.6,0.6-12.5-4.2-13.1-10.9l-0.1-1.3c-0.6-6.6,4.2-12.5,10.9-13.1l11.4-1.1
			c6.6-0.6,12.5,4.2,13.1,10.9l0.1,1.3C214.8,485.7,210,491.6,203.3,492.2z"/>
		
			<rect x="183.5" y="473.7" transform="matrix(0.9956 -9.420265e-02 9.420265e-02 0.9956 -43.9542 20.5822)" class="st1" width="25.1" height="4.2"/>
		
			<rect x="183.5" y="481.6" transform="matrix(0.9956 -9.420265e-02 9.420265e-02 0.9956 -44.6991 20.6173)" class="st1" width="25.1" height="4.2"/>
	</g>
	<g id="barquette_3_">
		<polygon class="st1" points="281.2,165.7 294.4,178.1 333.4,166.9 334,143 		"/>
		
			<rect x="278.3" y="148.8" transform="matrix(0.9212 -0.3892 0.3892 0.9212 -34.7164 131.7636)" class="st5" width="59" height="5.5"/>
	</g>
	<g id="pot_3_">
		<path class="st1" d="M294,210.9v22.8c0,0,6,7,15.2,4.4l9.9-22.2l-12.6,0.6L294,210.9z"/>
		<polygon class="st18" points="290.7,209.5 306.5,206.7 322.4,214.6 306.5,217.4 		"/>
		<polygon class="st18" points="299.4,210.9 306.5,209.4 313.3,212 306.6,214.4 		"/>
	</g>
	<g id="pot_5_">
		<path class="st1" d="M631.7,316.4v30.1c0,0,6.7,9.3,17,5.9l11.1-29.3l-14.1,0.7L631.7,316.4z"/>
		<polygon class="st6" points="628.1,314.6 645.7,310.9 663.5,321.2 645.7,324.9 		"/>
		<polygon class="st6" points="637.8,316.4 645.7,314.4 653.3,317.9 645.8,321.1 		"/>
	</g>
	<g id="club_3_">
		<path class="st7" d="M633.7,158.9h-12.1c0,0-4.7,2.2-3.5,4.4L605,208.4c0,0,8,5.2,16.7,1.3s19.8-14.9,19.8-14.9s2.2,4.2,2.8-9.8
			L633.7,158.9z"/>
		<path class="st7" d="M621.7,164.5c0,0,7.6-2.2,8.7,0c1.1,2.2-12.2,44-12.2,44s-8.5,2.6-9.9-2C606.9,201.8,621.7,164.5,621.7,164.5
			z"/>
		<polygon class="st1" points="633.7,158.9 621.7,209.7 644.2,194.3 644.2,185 		"/>
	</g>
	<g id="bouteille3_3_">
		
			<rect x="556.2" y="432.9" transform="matrix(-0.7071 0.7071 -0.7071 -0.7071 1271.8452 348.4326)" class="st12" width="15.1" height="9.4"/>
		<path class="st12" d="M562.8,445.3l8.7-8.7c3.4-3.4,9-3.4,12.4,0l27.3,27.3c3.4,3.4,3.4,9,0,12.4l-8.7,8.7c-3.4,3.4-9,3.4-12.4,0
			l-27.3-27.3C559.3,454.3,559.3,448.7,562.8,445.3z"/>
		
			<rect x="566.8" y="449.5" transform="matrix(-0.7331 0.6801 -0.6801 -0.7331 1307.951 388.5485)" class="st1" width="21.8" height="2.9"/>
		
			<rect x="570.7" y="454" transform="matrix(-0.7331 0.6801 -0.6801 -0.7331 1317.7524 393.8213)" class="st1" width="21.8" height="2.9"/>
	</g>
	<g id="bouteille2_5_">
		
			<rect x="407.2" y="514.1" transform="matrix(0.9522 0.3055 -0.3055 0.9522 177.8505 -101.7185)" class="st1" width="13.5" height="6.6"/>
		
			<rect x="407.6" y="518.9" transform="matrix(0.9522 0.3055 -0.3055 0.9522 178.9771 -101.1494)" class="st1" width="10.3" height="4.9"/>
		
			<rect x="390.9" y="538.6" transform="matrix(0.9372 0.3488 -0.3488 0.9372 216.3075 -106.4001)" class="st1" width="25.5" height="18"/>
		<path class="st12" d="M407.1,522.1c0,0-7.8,0.7-12.2,12.6c-4.4,11.9-13.9,37.9-13.9,37.9s-0.6,11.6,6.4,8.8c7.1-2.9,8,4.8,8,4.8
			s6.4,4.5,9.6-4.2c3.2-8.7,13.7-38.4,13.7-38.4s3.6-6.2-1.9-18.3L407.1,522.1z"/>
	</g>
	<g id="barquette_5_">
		<polygon class="st1" points="544.3,535.9 559.1,549.8 602.7,537.3 603.3,510.6 		"/>
		
			<rect x="541.1" y="517.1" transform="matrix(0.9212 -0.3892 0.3892 0.9212 -157.1693 264.4402)" class="st14" width="66" height="6.1"/>
	</g>
	<g id="pot_4_">
		<path class="st1" d="M647.8,537.5v30.1c0,0,6.7,9.3,17,5.9l11.1-29.3l-14.1,0.7L647.8,537.5z"/>
		<polygon class="st6" points="644.2,535.6 661.9,531.9 679.6,542.3 661.9,546 		"/>
		<polygon class="st6" points="653.9,537.5 661.9,535.5 669.4,539 661.9,542.1 		"/>
	</g>
	<g id="club_2_">
		<path class="st7" d="M653.3,452.1h-12.1c0,0-4.7,2.2-3.5,4.4l-13.2,45.1c0,0,8,5.2,16.7,1.3C650,499,661,488,661,488
			s2.2,4.2,2.8-9.8L653.3,452.1z"/>
		<path class="st7" d="M641.3,457.6c0,0,7.6-2.2,8.7,0c1.1,2.2-12.2,44-12.2,44s-8.5,2.6-9.9-2C626.5,494.9,641.3,457.6,641.3,457.6
			z"/>
		<polygon class="st1" points="653.3,452.1 641.3,502.9 663.8,487.4 663.8,478.2 		"/>
	</g>
	<g id="glace_5_">
		<path class="st1" d="M670.8,274l-41,3.9c-2.1,0.2-3.9-1.3-4.1-3.4l-2.7-28.2c-0.2-2.1,1.3-3.9,3.4-4.1l41-3.9
			c2.1-0.2,3.9,1.3,4.1,3.4l2.7,28.2C674.5,272,672.9,273.8,670.8,274z"/>
		<path class="st15" d="M658.3,271.7l-15.6,1.5c-6.6,0.6-12.5-4.2-13.1-10.9l-0.4-4.3c-0.6-6.6,4.2-12.5,10.9-13.1l15.6-1.5
			c6.6-0.6,12.5,4.2,13.1,10.9l0.4,4.3C669.8,265.2,664.9,271,658.3,271.7z"/>
		
			<rect x="634.6" y="251.2" transform="matrix(0.9956 -9.420265e-02 9.420265e-02 0.9956 -20.9978 62.2337)" class="st1" width="28.1" height="4.7"/>
		
			<rect x="634.6" y="260" transform="matrix(0.9956 -9.420265e-02 9.420265e-02 0.9956 -21.8312 62.273)" class="st1" width="28.1" height="4.7"/>
	</g>
	<g id="conserve_3_">
		<path class="st1" d="M683.4,364.4c0,0-5.7-6.2-9.4,0s-6.8,6.9,0,11.8c6.8,4.9,6.8,4.9,6.8,4.9l6.2,2
			C687.1,383.1,681.9,372.7,683.4,364.4z"/>
		<path class="st1" d="M658.8,380v29.7c0,0,18.9,14.1,31.4,0V380C690.2,380,676.3,390.4,658.8,380z"/>
		<path class="st16" d="M658.8,380c0,0,22.5-7.8,31.4,0C690.2,380,671.7,389.9,658.8,380z"/>
	</g>
	<g id="bouteille3_4_">
		
			<rect x="253" y="52.2" transform="matrix(-0.7071 0.7071 -0.7071 -0.7071 485.0492 -86.9899)" class="st12" width="15.1" height="9.4"/>
		<path class="st12" d="M259.5,64.6l8.7-8.7c3.4-3.4,9-3.4,12.4,0L308,83.3c3.4,3.4,3.4,9,0,12.4l-8.7,8.7c-3.4,3.4-9,3.4-12.4,0
			l-27.3-27.3C256.1,73.6,256.1,68.1,259.5,64.6z"/>
		
			<rect x="263.6" y="68.8" transform="matrix(-0.7331 0.6801 -0.6801 -0.7331 523.547 -64.958)" class="st1" width="21.8" height="2.9"/>
		
			<rect x="267.5" y="73.4" transform="matrix(-0.7331 0.6801 -0.6801 -0.7331 533.3483 -59.6852)" class="st1" width="21.8" height="2.9"/>
	</g>
	<g id="barquette_6_">
		<polygon class="st1" points="112.9,551.1 127.7,565 171.2,552.5 171.9,525.7 		"/>
		
			<rect x="109.7" y="532.3" transform="matrix(0.9212 -0.3892 0.3892 0.9212 -197.0969 97.7386)" class="st14" width="66" height="6.1"/>
	</g>
	<g id="pot_6_">
		<path class="st1" d="M350.8,114.5v30.1c0,0,6.7,9.3,17,5.9l11.1-29.3l-14.1,0.7L350.8,114.5z"/>
		<polygon class="st6" points="347.2,112.7 364.9,109 382.6,119.3 364.9,123 		"/>
		<polygon class="st6" points="356.9,114.5 364.9,112.5 372.4,116 364.9,119.2 		"/>
	</g>
	<g id="club_4_">
		<path class="st7" d="M356.3,29.1h-12.1c0,0-4.7,2.2-3.5,4.4l-13.2,45.1c0,0,8,5.2,16.7,1.3C353,76,364,65,364,65s2.2,4.2,2.8-9.8
			L356.3,29.1z"/>
		<path class="st7" d="M344.3,34.6c0,0,7.6-2.2,8.7,0c1.1,2.2-12.2,44-12.2,44s-8.5,2.6-9.9-2C329.5,71.9,344.3,34.6,344.3,34.6z"/>
		<polygon class="st1" points="356.3,29.1 344.3,79.9 366.8,64.4 366.8,55.2 		"/>
	</g>
	<g id="bouteille4_5_">
		
			<rect x="267.4" y="462.9" transform="matrix(0.996 8.970769e-02 -8.970769e-02 0.996 43.049 -22.656)" class="st1" width="12.4" height="9.4"/>
		
			<rect x="265.3" y="469.5" transform="matrix(0.996 8.970769e-02 -8.970769e-02 0.996 43.3946 -22.6189)" class="st1" width="16.1" height="3.8"/>
		<path class="st10" d="M266.8,471.4c0,0-5.8,2.9-7.3,7.3c0,0-13.9,4.5-17.4,11.4c-3.5,7,2.5,11.4,2.5,11.4l-8.9,64.5
			c0,0-1,5.3,5,5.9c6,0.6,38.3,5.9,38.3,5.9s7,0.7,8-8.5c1-9.2,6.5-60,6.5-60s12.4-7.6,0-21.3s-12.4-13.7-12.4-13.7L266.8,471.4z"/>
		
			<rect x="250.3" y="495.5" transform="matrix(0.9897 0.1435 -0.1435 0.9897 74.1368 -33.5292)" class="st1" width="38.4" height="3.3"/>
		
			<rect x="249.4" y="500.4" transform="matrix(0.9897 0.1435 -0.1435 0.9897 74.8276 -33.3477)" class="st1" width="38.4" height="3.3"/>
		<path class="st11" d="M274.7,543.6L274.7,543.6c-5.2-0.5-9-5-8.5-10.2l1.3-14.3c0.5-5.2,5-9,10.2-8.5v0c5.2,0.5,9,5,8.5,10.2
			l-1.3,14.3C284.4,540.3,279.8,544.1,274.7,543.6z"/>
		<path class="st1" d="M253.5,566l-5.5-0.5c-3.2-0.3-5.5-3.1-5.2-6.2l4.1-45c0.3-3.2,3.1-5.5,6.2-5.2l5.5,0.5
			c3.2,0.3,5.5,3.1,5.2,6.2l-4.1,45C259.5,564,256.7,566.3,253.5,566z"/>
		<path class="st1" d="M244.3,559.9l1-10.5c0.3-3.2,3.1-5.5,6.2-5.2l19.9,1.8c3.2,0.3,5.5,3.1,5.2,6.2l-1,10.5
			c-0.3,3.2-3.1,5.5-6.2,5.2l-19.9-1.8C246.4,565.9,244,563.1,244.3,559.9z"/>
	</g>
	<g id="bouteille2_7_">
		
			<rect x="422.8" y="18.6" transform="matrix(0.9522 0.3055 -0.3055 0.9522 27.0748 -129.9732)" class="st1" width="12" height="5.9"/>
		
			<rect x="423.2" y="22.8" transform="matrix(0.9522 0.3055 -0.3055 0.9522 28.0818 -129.4645)" class="st1" width="9.2" height="4.4"/>
		
			<rect x="408.3" y="40.4" transform="matrix(0.9372 0.3488 -0.3488 0.9372 43.2396 -143.3159)" class="st1" width="22.8" height="16.1"/>
		<path class="st2" d="M422.7,25.7c0,0-6.9,0.6-10.9,11.3s-12.4,33.9-12.4,33.9s-0.6,10.4,5.7,7.8c6.3-2.6,7.2,4.3,7.2,4.3
			s5.7,4,8.6-3.7s12.3-34.3,12.3-34.3s3.2-5.6-1.7-16.4L422.7,25.7z"/>
	</g>
	<g id="bouteille1_3_">
		<path class="st4" d="M534.5,120l-13.8,2.4c-5,0.9-9.7-2.4-10.5-7.4l-6-34.4c-0.9-5,2.4-9.7,7.4-10.5l9.5-1.7l-5.2-29.7l13.8-2.4
			l6.7,38.6l-0.5,0.1c0,0,0,0,0,0.1l6,34.4C542.8,114.4,539.5,119.2,534.5,120z"/>
		
			<rect x="506.8" y="85.5" transform="matrix(0.9861 -0.166 0.166 0.9861 -8.401 88.1248)" class="st1" width="32.2" height="17.7"/>
		<path class="st1" d="M523.2,34.6l-2.3,0.4c-4.2,0.7-8.2-2.1-9-6.4v0c-0.7-4.2,2.1-8.2,6.4-9l2.3-0.4c4.2-0.7,8.2,2.1,9,6.4v0
			C530.2,29.9,527.4,33.9,523.2,34.6z"/>
		
			<rect x="516.8" y="32.2" transform="matrix(-0.9861 0.166 -0.166 -0.9861 1042.3191 -16.4819)" class="st1" width="10.1" height="6.2"/>
	</g>
	<g id="barquette_8_">
		<polygon class="st1" points="628.6,38 641.8,50.4 680.8,39.3 681.4,15.4 		"/>
		
			<rect x="625.8" y="21.2" transform="matrix(0.9212 -0.3892 0.3892 0.9212 42.3548 256.9155)" class="st5" width="59" height="5.5"/>
	</g>
	<g id="bouteille2_6_">
		
			<rect x="579.5" y="13.1" transform="matrix(0.9522 0.3055 -0.3055 0.9522 32.9022 -178.0885)" class="st1" width="12" height="5.9"/>
		
			<rect x="579.8" y="17.4" transform="matrix(0.9522 0.3055 -0.3055 0.9522 33.9092 -177.5797)" class="st1" width="9.2" height="4.4"/>
		
			<rect x="564.9" y="35" transform="matrix(0.9372 0.3488 -0.3488 0.9372 51.1802 -198.2952)" class="st1" width="22.8" height="16.1"/>
		<path class="st2" d="M579.4,20.2c0,0-6.9,0.6-10.9,11.3S556,65.3,556,65.3s-0.6,10.4,5.7,7.8c6.3-2.6,7.2,4.3,7.2,4.3
			s5.7,4,8.6-3.7c2.9-7.7,12.3-34.3,12.3-34.3s3.2-5.6-1.7-16.4L579.4,20.2z"/>
	</g>
	<g id="glace_6_">
		<path class="st1" d="M628,106l-35.8,3.4c-2.1,0.2-3.9-1.3-4.1-3.4l-2.3-24.4c-0.2-2.1,1.3-3.9,3.4-4.1l35.8-3.4
			c2.1-0.2,3.9,1.3,4.1,3.4l2.3,24.4C631.6,104,630.1,105.8,628,106z"/>
		<path class="st8" d="M615.9,104l-11.4,1.1c-6.6,0.6-12.5-4.2-13.1-10.9l-0.1-1.3c-0.6-6.6,4.2-12.5,10.9-13.1l11.4-1.1
			c6.6-0.6,12.5,4.2,13.1,10.9l0.1,1.3C627.4,97.4,622.5,103.3,615.9,104z"/>
		
			<rect x="596" y="85.5" transform="matrix(0.9956 -9.420265e-02 9.420265e-02 0.9956 -5.5472 57.7188)" class="st1" width="25.1" height="4.2"/>
		
			<rect x="596" y="93.4" transform="matrix(0.9956 -9.420265e-02 9.420265e-02 0.9956 -6.2922 57.7539)" class="st1" width="25.1" height="4.2"/>
	</g>
	<g id="barquette_7_">
		<polygon class="st1" points="525.4,162.9 540.2,176.7 583.8,164.3 584.4,137.5 		"/>
		
			<rect x="522.2" y="144" transform="matrix(0.9212 -0.3892 0.3892 0.9212 -13.4733 227.6896)" class="st14" width="66" height="6.1"/>
	</g>
	<g id="bouteille3_5_">
		
			<rect x="330.5" y="422.3" transform="matrix(-0.7071 0.7071 -0.7071 -0.7071 879.0552 489.8743)" class="st12" width="15.1" height="9.4"/>
		<path class="st12" d="M337.1,434.7l8.7-8.7c3.4-3.4,9-3.4,12.4,0l27.3,27.3c3.4,3.4,3.4,9,0,12.4l-8.7,8.7c-3.4,3.4-9,3.4-12.4,0
			l-27.3-27.3C333.6,443.7,333.6,438.1,337.1,434.7z"/>
		
			<rect x="341.1" y="438.8" transform="matrix(-0.7331 0.6801 -0.6801 -0.7331 909.5795 523.621)" class="st1" width="21.8" height="2.9"/>
		
			<rect x="345" y="443.4" transform="matrix(-0.7331 0.6801 -0.6801 -0.7331 919.3809 528.8939)" class="st1" width="21.8" height="2.9"/>
	</g>
	<g id="barquette_9_">
		<polygon class="st1" points="318.6,525.3 333.4,539.1 377,526.7 377.6,499.9 		"/>
		
			<rect x="315.4" y="506.4" transform="matrix(0.9212 -0.3892 0.3892 0.9212 -170.8269 175.7658)" class="st14" width="66" height="6.1"/>
	</g>
	<g id="pot_7_">
		<path class="st1" d="M443.7,539.1v30.1c0,0,6.7,9.3,17,5.9l11.1-29.3l-14.1,0.7L443.7,539.1z"/>
		<polygon class="st6" points="440.1,537.3 457.8,533.6 475.5,543.9 457.8,547.6 		"/>
		<polygon class="st6" points="449.8,539.1 457.8,537.1 465.4,540.6 457.8,543.7 		"/>
	</g>
	<g id="club_5_">
		<path class="st7" d="M427.7,441.4h-12.1c0,0-4.7,2.2-3.5,4.4l-13.2,45.1c0,0,8,5.2,16.7,1.3c8.7-3.9,19.8-14.9,19.8-14.9
			s2.2,4.2,2.8-9.8L427.7,441.4z"/>
		<path class="st7" d="M415.6,447c0,0,7.6-2.2,8.7,0c1.1,2.2-12.2,44-12.2,44s-8.5,2.6-9.9-2C400.8,484.3,415.6,447,415.6,447z"/>
		<polygon class="st1" points="427.7,441.4 415.6,492.2 438.1,476.8 438.1,467.6 		"/>
	</g>
	<g id="bouteille1_4_">
		<path class="st13" d="M509.5,535.1l-15.5,2.7c-5.6,1-10.8-2.7-11.8-8.3l-6.8-38.6c-1-5.6,2.7-10.8,8.3-11.8l10.7-1.9l-5.8-33.3
			l15.5-2.7l7.6,43.3l-0.6,0.1c0,0,0,0,0,0.1l6.8,38.6C518.7,528.8,515,534.1,509.5,535.1z"/>
		
			<rect x="478.4" y="496.3" transform="matrix(0.9861 -0.166 0.166 0.9861 -77.1551 89.4495)" class="st1" width="36.1" height="19.9"/>
		<path class="st1" d="M496.7,439.3l-2.6,0.4c-4.7,0.8-9.2-2.4-10-7.1v0c-0.8-4.7,2.4-9.2,7.1-10l2.6-0.4c4.7-0.8,9.2,2.4,10,7.1v0
			C504.7,434,501.5,438.5,496.7,439.3z"/>
		
			<rect x="489.6" y="436.6" transform="matrix(-0.9861 0.166 -0.166 -0.9861 1056.7164 791.7951)" class="st1" width="11.4" height="6.9"/>
	</g>
	<g id="bouteille2_8_">
		
			<rect x="593.9" y="338.4" transform="matrix(0.9522 0.3055 -0.3055 0.9522 132.9572 -166.9261)" class="st1" width="12" height="5.9"/>
		
			<rect x="594.2" y="342.7" transform="matrix(0.9522 0.3055 -0.3055 0.9522 133.9643 -166.4174)" class="st1" width="9.2" height="4.4"/>
		
			<rect x="579.3" y="360.3" transform="matrix(0.9372 0.3488 -0.3488 0.9372 165.534 -182.878)" class="st1" width="22.8" height="16.1"/>
		<path class="st2" d="M593.7,345.5c0,0-6.9,0.6-10.9,11.3c-4,10.7-12.4,33.9-12.4,33.9s-0.6,10.4,5.7,7.8c6.3-2.6,7.2,4.3,7.2,4.3
			s5.7,4,8.6-3.7c2.9-7.7,12.3-34.3,12.3-34.3s3.2-5.6-1.7-16.4L593.7,345.5z"/>
	</g>
	<g id="bouteille2_9_">
		
			<rect x="743.6" y="348.6" transform="matrix(0.9522 0.3055 -0.3055 0.9522 143.2178 -212.1769)" class="st1" width="12" height="5.9"/>
		
			<rect x="743.9" y="352.9" transform="matrix(0.9522 0.3055 -0.3055 0.9522 144.2249 -211.6681)" class="st1" width="9.2" height="4.4"/>
		
			<rect x="729" y="370.4" transform="matrix(0.9372 0.3488 -0.3488 0.9372 178.479 -234.4586)" class="st1" width="22.8" height="16.1"/>
		<path class="st2" d="M743.5,355.7c0,0-6.9,0.6-10.9,11.3c-4,10.7-12.4,33.9-12.4,33.9s-0.6,10.4,5.7,7.8c6.3-2.6,7.2,4.3,7.2,4.3
			s5.7,4,8.6-3.7c2.9-7.7,12.3-34.3,12.3-34.3s3.2-5.6-1.7-16.4L743.5,355.7z"/>
	</g>
	<g id="bouteille3_6_">
		
			<rect x="688.3" y="452.1" transform="matrix(-0.7071 0.7071 -0.7071 -0.7071 1510.822 287.7823)" class="st12" width="15.1" height="9.4"/>
		<path class="st12" d="M694.8,464.5l8.7-8.7c3.4-3.4,9-3.4,12.4,0l27.3,27.3c3.4,3.4,3.4,9,0,12.4l-8.7,8.7c-3.4,3.4-9,3.4-12.4,0
			l-27.3-27.3C691.4,473.5,691.4,467.9,694.8,464.5z"/>
		
			<rect x="698.9" y="468.6" transform="matrix(-0.7331 0.6801 -0.6801 -0.7331 1549.8441 331.9614)" class="st1" width="21.8" height="2.9"/>
		
			<rect x="702.7" y="473.2" transform="matrix(-0.7331 0.6801 -0.6801 -0.7331 1559.6454 337.2343)" class="st1" width="21.8" height="2.9"/>
	</g>
	
</g>

<g id="Logo">
	<g id="logo">
		<path class="st19" d="M438.1,341.7c0,0-16.3-4.2-18.1-18.6l-6,4.2C414,327.3,427.2,344.7,438.1,341.7z"/>
		<path class="st19" d="M396.3,246.8c0,0,11.2-12.6,24.8-7.5l-1-7.2C420.2,232.1,398.6,235.8,396.3,246.8z"/>
		<path class="st19" d="M496.2,251.9c0,0,6.7,15.4-3.7,25.7l7,2.2C499.5,279.7,505.2,258.6,496.2,251.9z"/>
		<path class="st20" d="M487.3,236c0,0-18-22.8-49.8-22.8c0,0-27,7.8-13.8,36c13.2,28.2,52.2-5.4,52.2-5.4L487.3,236z"/>
		<path class="st20" d="M460.6,332.6c0,0,29-2,46.9-28.3c0,0,8.8-26.7-22-31.7c-30.8-5-24.9,46.2-24.9,46.2L460.6,332.6z"/>
		<path class="st20" d="M394.6,262.8c0,0-16.6,23.9-7.3,54.3c0,0,15.3,23.6,38.5,2.7c23.1-20.9-20.4-48.4-20.4-48.4L394.6,262.8z"/>
		

		<animateTransform
			attributeName='transform'
			type="rotate"
			from="0 440 275"
            to="360 440 275"
			begin="0s"
			dur="2s"
			repeatCount="1"/>

	</g>
	<text transform="matrix(1 0 0 1 340.0661 379.5109)" class="st20 st21 st22">Eco-Service</text>
	<animate attributeType="CSS" attributeName="opacity" 
           from="0" to="1" dur="2s" />
</g>
</svg>

